<svg xmlns="http://www.w3.org/2000/svg" xmlns:xlink="http://www.w3.org/1999/xlink" id="deepminds_logo_white_svg__Calque_2" data-name="Calque 2" viewBox="0 0 80.99 15.41" class="w-[200px] lg:w-[240px] h-full md:ml-3 lg:ml-10"><defs><radialGradient id="deepminds_logo_white_svg__radial-gradient" cx="9.04" cy="4.21" r="14" fx="9.04" fy="4.21" gradientUnits="userSpaceOnUse"><stop offset="0" stop-color="#a7a9ac" stop-opacity="0"></stop><stop offset="0.5" stop-color="#f1f2f2"></stop><stop offset="1" stop-color="#f1f2f2"></stop></radialGradient><radialGradient xlink:href="#deepminds_logo_white_svg__radial-gradient" id="deepminds_logo_white_svg__radial-gradient-2" cx="5348.68" cy="-503.16" r="14" fx="5348.68" fy="-503.16" gradientTransform="rotate(-180 2677.6 -245.98)"></radialGradient><style>.deepminds_logo_white_svg__cls-1{fill:#fff}</style></defs><g id="deepminds_logo_white_svg__Calque_1-2" data-name="Calque 1"><path d="M23.62 3.3c.9 0 1.68.18 2.36.55.67.37 1.19.89 1.55 1.55s.54 1.43.54 2.31-.18 1.63-.54 2.3-.88 1.19-1.55 1.56-1.46.55-2.36.55h-2.81V3.3zm2.19 6.71c.51-.57.77-1.33.77-2.3s-.26-1.73-.77-2.3-1.24-.85-2.19-.85h-1.36v6.3h1.36c.95 0 1.68-.28 2.19-.85M29.96 6c.47-.27 1.02-.41 1.63-.41s1.17.13 1.64.38.85.61 1.12 1.07.41 1 .42 1.63c0 .17-.01.34-.04.52h-4.86v.08c.03.56.21 1.01.53 1.34s.74.49 1.27.49c.42 0 .77-.1 1.06-.3s.47-.48.57-.84h1.36c-.12.66-.43 1.19-.95 1.61s-1.16.63-1.93.63c-.67 0-1.26-.14-1.76-.41s-.89-.66-1.16-1.15c-.27-.5-.41-1.07-.41-1.73s.13-1.25.4-1.74c.26-.5.63-.89 1.11-1.16Zm2.87 1.08c-.31-.26-.71-.4-1.19-.4-.45 0-.83.14-1.15.41s-.51.64-.56 1.09h3.46c-.06-.47-.25-.84-.56-1.1M36.64 6c.47-.27 1.02-.41 1.63-.41s1.17.13 1.64.38.85.61 1.12 1.07.41 1 .42 1.63c0 .17-.01.34-.04.52h-4.86v.08c.03.56.21 1.01.53 1.34s.74.49 1.27.49c.42 0 .77-.1 1.06-.3s.47-.48.57-.84h1.36c-.12.66-.43 1.19-.95 1.61s-1.16.63-1.93.63c-.67 0-1.26-.14-1.76-.41s-.89-.66-1.16-1.15c-.27-.5-.41-1.07-.41-1.73s.13-1.25.4-1.74c.26-.5.63-.89 1.11-1.16Zm2.87 1.08c-.31-.26-.71-.4-1.19-.4-.45 0-.83.14-1.15.41s-.51.64-.56 1.09h3.46c-.06-.47-.25-.84-.56-1.1M48.16 7.13c.26.5.39 1.09.39 1.76s-.13 1.23-.39 1.73-.62.89-1.08 1.16-.99.41-1.57.41c-.48 0-.89-.09-1.25-.26s-.63-.42-.84-.72v3.28h-1.36V5.67h1.18l.16.96c.52-.69 1.22-1.03 2.1-1.03.59 0 1.11.13 1.57.4s.82.65 1.08 1.15Zm-1 1.76c0-.64-.17-1.15-.52-1.55-.35-.39-.8-.59-1.37-.59s-1.02.2-1.36.59-.52.9-.52 1.53.17 1.17.52 1.57c.34.4.8.6 1.36.6s1.02-.2 1.37-.6.52-.92.52-1.55M51.16 3.3l2.82 6.94 2.77-6.94h1.84v8.82h-1.4V5.63l-2.65 6.49h-1.22l-2.65-6.49v6.49h-1.4V3.3h1.88ZM60.93 5.67v6.45h-1.36V5.67zM67.76 8.56v3.55h-1.37V8.63c0-.61-.13-1.08-.39-1.4s-.64-.48-1.15-.48c-.54 0-.96.19-1.27.56s-.46.89-.46 1.54v3.25h-1.36V5.65h1.18l.15.84c.49-.61 1.18-.92 2.07-.92.76 0 1.39.24 1.87.71s.72 1.23.72 2.27ZM74.75 12.12h-1.18l-.16-.97q-.765 1.05-2.1 1.05c-.59 0-1.11-.13-1.57-.4-.46-.26-.82-.65-1.08-1.15s-.39-1.09-.39-1.76.13-1.23.4-1.73c.26-.5.63-.89 1.09-1.16s.98-.41 1.56-.41c.47 0 .88.09 1.23.26s.64.41.86.71V3.3h1.36v8.82Zm-1.35-3.2c0-.65-.17-1.17-.52-1.57s-.8-.6-1.36-.6-1.02.2-1.36.6-.52.91-.52 1.54.17 1.16.52 1.56c.34.4.8.6 1.36.6s1.02-.2 1.36-.59.52-.91.52-1.54M77.14 10.81c.29.21.67.32 1.13.32.41 0 .75-.08 1-.23.26-.16.38-.36.38-.62 0-.22-.06-.38-.18-.49s-.28-.19-.47-.23c-.2-.05-.5-.09-.91-.14-.56-.07-1.03-.16-1.39-.27-.37-.11-.66-.29-.88-.54s-.33-.58-.33-1c0-.39.11-.75.33-1.05s.53-.54.92-.71.83-.25 1.33-.25c.81 0 1.48.18 1.98.54s.78.87.83 1.52h-1.32c-.03-.29-.18-.54-.44-.72s-.59-.28-.98-.28-.71.08-.96.23c-.24.15-.37.36-.37.62 0 .19.06.34.18.43s.28.16.46.2.48.08.89.13c.55.06 1.02.15 1.4.27s.68.31.91.58.34.62.34 1.08c0 .4-.12.76-.35 1.06-.24.31-.56.54-.97.71s-.87.25-1.39.25c-.87 0-1.56-.2-2.1-.59-.53-.39-.81-.93-.83-1.62h1.31c.03.34.18.61.47.83Z" class="deepminds_logo_white_svg__cls-1"></path><path d="M60.25 3.08h-.04l-.77.72v.09c0 .45.37.82.82.82s.82-.37.82-.82-.37-.82-.82-.82Z" style="fill:#d534f6"></path><path d="M11.64 5.81V9.6c0 .21-.11.4-.29.5l-2.2 1.27-1.37.79-5.5 3.17c-.18.11-.41.1-.59 0l-1.42-.86a.57.57 0 0 1-.28-.49V1.43c0-.2.11-.39.28-.49L1.7.08c.18-.11.4-.11.59 0l5.5 3.17-1.37.79L2 1.49l-.64.39v11.65l.64.39 4.41-2.55 1.37-.79 2.49-1.44V6.26L7.78 4.82l1.37-.79 2.2 1.27c.18.1.29.29.29.5Z" style="fill:url(#deepminds_logo_white_svg__radial-gradient)"></path><path d="M3.92 9.6V5.81c0-.21.11-.4.29-.5l2.2-1.27 1.37-.79 5.5-3.17c.18-.11.41-.1.59 0l1.42.86c.17.1.28.29.28.49v12.54c0 .2-.11.39-.28.49l-1.42.86c-.18.11-.4.11-.59 0l-5.5-3.17 1.37-.79 4.41 2.55.64-.39V1.88l-.64-.39-4.41 2.55-1.37.79-2.49 1.44v2.88l2.49 1.44-1.37.79-2.2-1.27a.57.57 0 0 1-.29-.5Z" style="fill:url(#deepminds_logo_white_svg__radial-gradient-2)"></path></g></svg>